<svg width="192" height="192" viewBox="0 0 192 192" fill="none" xmlns="http://www.w3.org/2000/svg">
<rect width="192" height="192" rx="20" fill="#1A73E8"/>
<path d="M101.7 141.5C94.3 141.5 87.75 140.15 82.05 137.45C76.35 134.75 71.8 130.85 68.4 125.75C65.1 120.55 63.3 114.35 63 107.15C62.9 105.55 62.85 103.55 62.85 101.15C62.85 98.65 62.9 96.6 63 95C63.3 87.7 65.1 81.5 68.4 76.4C71.7 71.2 76.2 67.25 81.9 64.55C87.7 61.85 94.3 60.5 101.7 60.5C108.6 60.5 114.5 61.5 119.4 63.5C124.3 65.4 128.3 67.8 131.4 70.7C134.5 73.6 136.8 76.6 138.3 79.7C139.9 82.7 140.75 85.35 140.85 87.65C140.95 88.65 140.6 89.55 139.8 90.35C139 91.05 138.1 91.4 137.1 91.4H118.05C116.95 91.4 116.1 91.15 115.5 90.65C114.9 90.15 114.35 89.4 113.85 88.4C112.65 85.3 111.1 83.1 109.2 81.8C107.4 80.5 105.05 79.85 102.15 79.85C98.15 79.85 95.05 81.15 92.85 83.75C90.75 86.35 89.6 90.35 89.4 95.75C89.3 99.75 89.3 103.3 89.4 106.4C89.6 111.9 90.75 115.9 92.85 118.4C95.05 120.9 98.15 122.15 102.15 122.15C105.25 122.15 107.7 121.5 109.5 120.2C111.3 118.9 112.75 116.7 113.85 113.6C114.35 112.6 114.9 111.85 115.5 111.35C116.1 110.85 116.95 110.6 118.05 110.6H137.1C138.1 110.6 139 111 139.8 111.8C140.6 112.5 140.95 113.35 140.85 114.35C140.75 116.05 140.25 118.05 139.35 120.35C138.45 122.55 137.05 124.9 135.15 127.4C133.25 129.9 130.75 132.25 127.65 134.45C124.65 136.55 121 138.25 116.7 139.55C112.4 140.85 107.4 141.5 101.7 141.5Z" fill="white"/>
</svg>
